<svg width="59" height="120" viewBox="0 0 59 120" fill="none" xmlns="http://www.w3.org/2000/svg">
<path d="M12.768 50.072C9.26933 50.072 6.32533 48.8773 3.936 46.488C1.54667 44.0987 0.352 41.112 0.352 37.528C0.352 33.8587 1.54667 30.9147 3.936 28.696C6.32533 26.392 9.26933 25.24 12.768 25.24C16.2667 25.24 19.2107 26.392 21.6 28.696C23.9893 30.9147 25.184 33.8587 25.184 37.528C25.184 41.112 23.9893 44.0987 21.6 46.488C19.2107 48.8773 16.2667 50.072 12.768 50.072ZM12.896 71.192C16.48 71.192 19.424 72.344 21.728 74.648C24.032 76.8667 25.184 79.8107 25.184 83.48C25.184 85.1867 24.9707 86.8933 24.544 88.6C24.1173 90.3067 23.1787 92.8667 21.728 96.28L14.432 114.712H1.76L7.392 94.36C5.25867 93.5067 3.552 92.1413 2.272 90.264C1.07733 88.3013 0.48 86.04 0.48 83.48C0.48 79.8107 1.632 76.8667 3.936 74.648C6.32533 72.344 9.312 71.192 12.896 71.192Z" fill="url(#paint0_linear_14_214)"/>
<path d="M34.62 119.832C39.6547 111.213 43.3667 101.997 45.756 92.184C48.1453 82.2853 49.34 71.5333 49.34 59.928C49.34 48.3227 48.1453 37.6133 45.756 27.8C43.3667 17.9013 39.6547 8.64266 34.62 0.0239944H43.324C48.1027 7.704 51.772 16.7067 54.332 27.032C56.9773 37.272 58.3 48.2373 58.3 59.928C58.3 71.6187 57.02 82.584 54.46 92.824C51.9 103.064 48.188 112.067 43.324 119.832H34.62Z" fill="url(#paint1_linear_14_214)"/>
<defs>
<linearGradient id="paint0_linear_14_214" x1="34" y1="-29" x2="34" y2="127" gradientUnits="userSpaceOnUse">
<stop stop-color="#FCEFDF"/>
<stop offset="1" stop-color="#6488A2"/>
</linearGradient>
<linearGradient id="paint1_linear_14_214" x1="34" y1="-29" x2="34" y2="127" gradientUnits="userSpaceOnUse">
<stop stop-color="#F2E8DB"/>
<stop offset="0.9999" stop-color="#6488A2"/>
<stop offset="1" stop-color="#FCEFDF"/>
</linearGradient>
</defs>
</svg>
