<svg width="200" height="49" viewBox="0 0 200 49" fill="none" xmlns="http://www.w3.org/2000/svg">
<path d="M0.884814 3.13896L7.28452 3.07752L7.66115 42.3077L31.916 42.0749L31.9695 47.6426L1.3149 47.9369L0.884814 3.13896ZM75.5074 2.42254L75.9375 47.2205L69.7937 47.2795L69.7329 40.9438C66.7476 45.538 61.9057 47.8672 55.2073 47.9315C49.8742 47.9827 45.6775 46.4016 42.6172 43.1882C39.5996 39.9743 38.0619 35.3595 38.0041 29.3438L37.7491 2.78504L44.1488 2.7236L44.402 29.0904C44.4433 33.3995 45.5415 36.6745 47.6964 38.9152C49.8514 41.156 52.7848 42.2585 56.4966 42.2229C60.5071 42.1844 63.6741 40.9593 65.9977 38.5475C68.3214 36.1358 69.4606 32.5833 69.4156 27.8902L69.1717 2.48337L75.5074 2.42254ZM103.264 47.3421C99.8086 47.3753 96.7082 46.6584 93.9633 45.1913C91.2611 43.7239 89.1295 41.6962 87.5686 39.1084C86.0073 36.478 85.2107 33.4988 85.1787 30.171C85.1468 26.8431 85.8863 23.8706 87.3972 21.2533C88.9077 18.5933 91 16.5251 93.6739 15.0487C96.3901 13.5292 99.4762 12.7529 102.932 12.7197C106.004 12.6902 108.74 13.2827 111.141 14.497C113.585 15.7109 115.48 17.4848 116.825 19.8187L112.182 22.8714C111.1 21.2604 109.765 20.0571 108.179 19.2617C106.593 18.4662 104.84 18.0777 102.92 18.0961C100.701 18.1174 98.7005 18.6273 96.918 19.6258C95.1782 20.6239 93.8051 22.0451 92.7988 23.8895C91.8347 25.6909 91.3639 27.7648 91.3864 30.1114C91.4094 32.5006 91.9203 34.6078 92.9192 36.433C93.9603 38.215 95.3603 39.5883 97.1189 40.5528C98.9203 41.5169 100.93 41.9883 103.149 41.967C105.069 41.9486 106.814 41.5265 108.385 40.7007C109.956 39.8749 111.267 38.6463 112.318 37.0148L117.018 39.9138C115.718 42.273 113.858 44.1043 111.438 45.4076C109.061 46.6678 106.336 47.3127 103.264 47.3421ZM143.502 1.25773C149.475 1.20039 154.206 2.90438 157.696 6.3697C161.185 9.79237 162.96 14.7462 163.022 21.2313L163.264 46.3821L156.864 46.4435L156.746 34.0921L130.891 34.3403L131.009 46.6918L124.738 46.752L124.496 21.6011C124.434 15.1161 126.114 10.1291 129.537 6.64004C132.959 3.10836 137.614 1.31426 143.502 1.25773ZM156.692 28.5244L156.617 20.7167C156.573 16.1516 155.388 12.7068 153.062 10.3824C150.778 8.05752 147.61 6.91456 143.557 6.95347C139.503 6.99238 136.336 8.19618 134.055 10.5649C131.816 12.9331 130.719 16.3998 130.762 20.9649L130.837 28.7726L156.692 28.5244ZM185.142 46.5561C182.369 46.5827 179.699 46.2456 177.132 45.5449C174.565 44.8015 172.55 43.8608 171.089 42.7228L173.602 37.8345C175.105 38.8867 176.927 39.7226 179.066 40.3421C181.206 40.9616 183.363 41.2609 185.539 41.24C190.915 41.1884 193.588 39.6267 193.558 36.5548C193.549 35.5309 193.178 34.7237 192.447 34.1334C191.716 33.543 190.795 33.1252 189.683 32.8798C188.614 32.5914 187.075 32.2862 185.066 31.9641C182.331 31.5637 180.087 31.0946 178.332 30.5567C176.62 30.0184 175.139 29.094 173.889 27.7832C172.639 26.4725 172.003 24.6225 171.98 22.2333C171.951 19.1614 173.207 16.6959 175.749 14.8368C178.291 12.935 181.717 11.9634 186.026 11.922C188.287 11.9003 190.551 12.1559 192.817 12.6888C195.084 13.2218 196.947 13.9506 198.407 14.8753L195.829 19.7642C193.039 17.9989 189.767 17.1343 186.012 17.1704C183.41 17.1953 181.43 17.641 180.073 18.5074C178.716 19.3738 178.044 20.511 178.057 21.9189C178.068 23.0282 178.46 23.8992 179.234 24.5318C180.009 25.1644 180.952 25.6247 182.064 25.9127C183.219 26.2003 184.822 26.5262 186.873 26.8905C189.608 27.3336 191.811 27.8245 193.48 28.3632C195.191 28.8588 196.651 29.7408 197.857 31.0093C199.064 32.2778 199.679 34.0639 199.701 36.3678C199.73 39.4397 198.431 41.9056 195.804 43.7656C193.218 45.5825 189.665 46.5126 185.142 46.5561Z" fill="#0D1D2C"/>
</svg>
